<svg width="354" height="44" viewBox="0 0 354 44" fill="none" xmlns="http://www.w3.org/2000/svg">
<path d="M309.008 33.1599L329.992 10.3401C336.052 3.75017 344.595 0 353.547 0H0.45291C9.40535 0 17.9484 3.75018 24.0081 10.3401L44.9919 33.1599C51.0516 39.7498 59.5947 43.5 68.5471 43.5H285.453C294.405 43.5 302.948 39.7498 309.008 33.1599Z" fill="black"/>
<rect x="81.2131" width="10" height="30" rx="5" transform="rotate(45 81.2131 0)" fill="#1A1A1A"/>
<rect x="111.213" width="10" height="30" rx="5" transform="rotate(45 111.213 0)" fill="#1A1A1A"/>
<rect x="141.213" width="10" height="30" rx="5" transform="rotate(45 141.213 0)" fill="#1A1A1A"/>
<rect x="171.213" width="10" height="30" rx="5" transform="rotate(45 171.213 0)" fill="#1A1A1A"/>
<rect x="201.213" width="10" height="30" rx="5" transform="rotate(45 201.213 0)" fill="#1A1A1A"/>
<rect x="231.213" width="10" height="30" rx="5" transform="rotate(45 231.213 0)" fill="#1A1A1A"/>
<rect x="261.213" width="10" height="30" rx="5" transform="rotate(45 261.213 0)" fill="#1A1A1A"/>
<rect x="291.213" width="10" height="30" rx="5" transform="rotate(45 291.213 0)" fill="#1A1A1A"/>
</svg>
