<svg
                width="64"
                height="64"
                viewBox="0 0 64 64"
                fill="none"
                xmlns="http://www.w3.org/2000/svg"
              >
                <g clip-path="url(#clip0_1_2080)">
                  <path
                    d="M60.325 44.4437V19.5688C60.325 17.0188 58.9625 14.6687 56.7625 13.3938L35.225 0.95625C33.025 -0.31875 30.3 -0.31875 28.1 0.95625L6.5625 13.3938C4.3625 14.6687 3 17.0188 3 19.5688V44.4437C3 46.9937 4.3625 49.3437 6.5625 50.6187L28.1 63.0562C30.3 64.3312 33.025 64.3312 35.225 63.0562L56.7625 50.6187C58.975 49.3437 60.325 46.9937 60.325 44.4437Z"
                    fill="#171717"
                    fill-opacity="0.5"
                  />
                  <path
                    d="M25.9708 22.9856C25.5808 22.9969 25.2107 23.1599 24.9388 23.4397L21.9403 26.4375C21.3532 27.0235 21.3532 27.9747 21.9403 28.5608L24.9388 31.5615C26.3543 32.9842 28.4848 30.8537 27.0621 29.4382L26.6212 28.998H35.0008C37.5198 28.998 39.4993 30.9805 39.4993 33.4995C39.4993 36.0184 37.5198 38.0002 35.0008 38.0002H32.0001C29.9166 38.0002 29.9166 40.998 32.0001 40.998H35.0008C39.1299 40.998 42.5001 37.6285 42.5001 33.4995C42.5001 29.3704 39.1299 26.0002 35.0008 26.0002H26.6219L27.0621 25.56C28.0425 24.6057 27.3383 22.9446 25.9708 22.9856Z"
                    fill="#EB5939"
                  />
                </g>
                <defs>
                  <clipPath id="clip0_1_2080">
                    <rect width="64" height="64" fill="white" />
                  </clipPath>
                </defs>
              </svg>