<svg
width="28"
height="28"
viewBox="0 0 32 32"
fill="none"
xmlns="http://www.w3.org/2000/svg"
>
<path
    d="M16 32C24.8366 32 32 24.8366 32 16C32 7.16344 24.8366 0 16 0C7.16344 0 0 7.16344 0 16C0 24.8366 7.16344 32 16 32Z"
    fill="#F7931A"
/>
<path
    d="M23.189 14.02C23.503 11.924 21.906 10.797 19.724 10.037L20.432 7.28L18.704 6.82L18.013 9.514C17.552 9.4 17.077 9.294 16.607 9.188L17.304 6.472L15.577 6.012L14.869 8.769C14.49 8.684 14.119 8.599 13.759 8.51L13.761 8.5L11.391 7.862L10.902 9.722C10.902 9.722 12.169 10.008 12.143 10.023C12.834 10.196 12.958 10.655 12.94 11.018L12.129 14.144C12.183 14.158 12.252 14.178 12.325 14.21L12.125 14.16L11.005 18.561C10.921 18.767 10.722 19.072 10.239 18.951C10.256 18.972 9 18.647 9 18.647L8.1 20.635L10.33 21.232C10.751 21.339 11.164 21.451 11.57 21.557L10.852 24.349L12.579 24.809L13.287 22.05C13.764 22.178 14.227 22.295 14.68 22.405L13.975 25.15L15.703 25.61L16.421 22.826C19.374 23.351 21.586 23.13 22.44 20.43C23.125 18.25 22.372 16.981 20.857 16.182C21.962 15.936 22.78 15.121 23.189 14.02ZM19.237 19.3C18.761 21.48 15.172 20.34 14.032 20.062L14.985 16.407C16.126 16.687 19.735 17.027 19.237 19.3ZM19.716 13.984C19.284 15.963 16.257 14.978 15.308 14.744L16.168 11.427C17.117 11.661 20.168 11.923 19.716 13.984Z"
    fill="white"
/>
</svg>