<svg
                width="150"
                height="150"
                viewBox="0 0 178 178"
                fill="none"
                xmlns="http://www.w3.org/2000/svg"
              >
                <path
                  d="M89.3172 139.652C83.2152 141.9 75.4666 144.748 65.6655 148.38C48.9279 146.044 31.3393 140.598 23.7354 128.099C26.5055 120.64 28.9196 114.104 31.0556 108.335C45.3846 124.889 70.4214 135.403 89.3172 139.652Z"
                  fill="#EB5939"
                />
                <path
                  d="M94.1788 83.8211C77.8918 67.5397 56.9212 55.5136 48.3716 64.0798C46.5471 65.9043 47.0978 64.8141 34.4209 99.2181C47.9378 118.726 82.0915 132.348 105.882 133.544C112.997 130.869 112.83 130.735 113.926 129.634C124.411 119.149 104.659 94.2953 94.1788 83.8211ZM108.018 123.727C107.223 124.533 103.524 124.572 96.9545 121.329C89.8123 117.797 81.6632 111.639 74.0092 103.985C56.276 86.252 52.1319 72.1121 54.2679 69.9761C54.6016 69.6423 55.2246 69.4643 56.1091 69.4643C60.8984 69.4643 73.3083 74.7543 88.2826 89.723C95.9366 97.377 102.1 105.526 105.632 112.668C108.875 119.226 108.819 122.931 108.018 123.727Z"
                  fill="#EB5939"
                />
                <path
                  d="M50.3905 154.048C40.7562 157.63 29.6479 161.78 16.7485 166.614C13.3943 167.849 10.1458 164.589 11.3862 161.251C14.6347 152.552 17.5661 144.686 20.2361 137.511C27.5675 145.932 38.5924 151.039 50.3905 154.048Z"
                  fill="#EB5939"
                />
                <path
                  d="M109.409 21.6659C106.811 22.1221 104.303 22.5337 102.601 23.3903C105.159 27.3174 110.505 32.3181 107.24 38.8485C104.319 44.6891 98.2507 44.3443 92.983 44.5278C96.2149 48.9444 99.9529 53.4223 97.0715 59.1906C94.0844 65.1703 86.2524 66.4107 81.63 67.1616C80.1337 67.4064 78.743 66.4051 78.4649 64.9199L77.4525 59.4576C77.1689 57.939 78.1924 56.4761 79.7109 56.2091C82.342 55.7474 84.8062 55.3469 86.5194 54.4847C83.9495 50.5854 78.6262 45.5346 81.8747 39.0321C84.7895 33.2081 90.8526 33.5363 96.1314 33.3528C92.894 28.9361 89.1616 24.4583 92.043 18.69C95.03 12.7159 102.868 11.4699 107.479 10.7189C108.975 10.4742 110.366 11.4754 110.638 12.9606L111.651 18.423C111.946 19.9416 110.933 21.3989 109.409 21.6659Z"
                  fill="#EB5939"
                />
                <path
                  d="M159.582 66.3326L165.045 67.345C166.535 67.6231 167.531 69.0138 167.286 70.5045C166.535 75.1158 165.289 82.9534 159.315 85.9404C153.547 88.8218 149.069 85.0894 144.652 81.852C144.469 87.1308 144.797 93.1995 138.973 96.1087C132.471 99.3572 127.42 94.0339 123.521 91.464C122.658 93.1773 122.258 95.6414 121.796 98.2725C121.529 99.7966 120.066 100.815 118.548 100.531L113.085 99.5185C111.595 99.2404 110.599 97.8498 110.844 96.3534C111.595 91.7366 112.841 83.9046 118.815 80.9119C124.577 78.0306 129.061 81.7686 133.477 85.0004C133.661 79.7327 133.316 73.6584 139.157 70.7437C145.687 67.4785 150.688 72.8241 154.615 75.3828C155.472 73.6807 155.883 71.172 156.339 68.5743C156.601 67.0669 158.058 66.0545 159.582 66.3326Z"
                  fill="#EB5939"
                />
                <path
                  d="M142.956 116.812H132.387C131.464 116.812 130.719 116.067 130.719 115.144V110.137C130.719 109.214 131.464 108.469 132.387 108.469H142.956C143.88 108.469 144.625 109.214 144.625 110.137V115.144C144.625 116.067 143.88 116.812 142.956 116.812Z"
                  fill="#EB5939"
                />
                <path
                  d="M154.57 18.2058L147.094 25.6818C146.444 26.3327 145.387 26.3327 144.736 25.6818L141.198 22.1385C140.547 21.4877 140.547 20.4308 141.198 19.78L148.674 12.304C149.325 11.6532 150.382 11.6532 151.033 12.304L154.57 15.8418C155.221 16.4926 155.221 17.5495 154.57 18.2058Z"
                  fill="#EB5939"
                />
                <path
                  d="M67.8625 36.1562H62.8563C61.9329 36.1562 61.1875 35.4109 61.1875 34.4875V23.9188C61.1875 22.9954 61.9329 22.25 62.8563 22.25H67.8625C68.7859 22.25 69.5312 22.9954 69.5312 23.9188V34.4875C69.5312 35.4109 68.7859 36.1562 67.8625 36.1562Z"
                  fill="#EB5939"
                />
                <path
                  d="M107.818 73.7312L103.646 70.9499C102.862 70.4271 102.634 69.3702 103.173 68.597C114.526 52.4435 136.415 35.6058 159.571 34.7937C160.523 34.7659 161.313 35.5557 161.313 36.5014V41.5132C161.313 42.4032 160.612 43.0985 159.722 43.1374C140.347 43.9051 120.5 58.4955 110.06 73.3084C109.542 74.0482 108.563 74.2318 107.818 73.7312Z"
                  fill="#EB5939"
                />
              </svg>