<svg width="25" height="25" viewBox="0 0 25 25" fill="none" xmlns="http://www.w3.org/2000/svg">
<path d="M20.925 1.25C20.85 1.25 20.775 1.25 20.725 1.25H12.9C11.9 1.25 11.1 2.05 11.1 3.05V11H3.05C2.05 11 1.25 11.8 1.25 12.8V20.625C1.25 20.7 1.25 20.775 1.275 20.85L1.25 20.925C1.25 21.925 3.375 23.75 4.375 23.75H21.95C22.95 23.75 23.75 22.95 23.75 21.95V4.375C23.75 3.375 21.925 1.25 20.925 1.25ZM11.5 15.475L12.75 14.225C12.975 14 13.35 14 13.55 14.25C13.725 14.45 13.725 14.775 13.525 14.975L12.45 16.05H18.475V9.175C18.475 8.875 18.7 8.625 19 8.625C19.3 8.625 19.55 8.85 19.55 9.175V17.15H12.45L13.525 18.225C13.725 18.425 13.725 18.775 13.525 19C13.425 19.1 13.275 19.15 13.15 19.15C13 19.15 12.875 19.1 12.775 19L11.55 17.775C11.25 17.475 11.075 17.075 11.075 16.675C11.025 16.2 11.2 15.775 11.5 15.475ZM23.45 21.95C23.45 22.775 22.775 23.45 21.95 23.45H4.375C4 23.45 3.275 23.05 2.625 22.475C2.55 22.425 2.5 22.35 2.425 22.3C2.625 22.375 2.825 22.4 3.025 22.4H12.875H20.6H20.7C21.7 22.4 22.5 21.6 22.5 20.6V3.05C22.5 2.9 22.475 2.75 22.45 2.6C22.45 2.625 22.475 2.625 22.475 2.65C23.05 3.3 23.45 4 23.45 4.4V21.95Z" fill="#EB5939"/>
</svg>
