<svg
    width="54"
    height="54"
    viewBox="0 0 54 54"
    fill="none"
    xmlns="http://www.w3.org/2000/svg"
>
    <g clip-path="url(#clip0_58_16866)">
    <path
        d="M41.3438 28.6875C34.3538 28.6875 28.6875 34.3538 28.6875 41.3438C28.6875 48.3337 34.3538 54 41.3438 54C48.3337 54 54 48.3337 54 41.3438C54 34.3538 48.3337 28.6875 41.3438 28.6875ZM46.0898 42.9258H41.3438C40.4693 42.9258 39.7617 42.2182 39.7617 41.3438V36.5977C39.7617 35.7232 40.4693 35.0156 41.3438 35.0156C42.2182 35.0156 42.9258 35.7232 42.9258 36.5977V39.7617H46.0898C46.9643 39.7617 47.6719 40.4693 47.6719 41.3438C47.6719 42.2182 46.9643 42.9258 46.0898 42.9258Z"
        fill="#EB5939"
    />
    <path
        d="M24.7069 2.46734C23.8726 0.945527 22.286 0 20.5664 0C18.8468 0 17.2602 0.945527 16.4306 2.45953L0.619524 30.9191C0.208617 31.639 0 32.4131 0 33.2227C0 35.8398 2.12899 37.9688 4.74609 37.9688H25.6323C26.87 31.8979 31.6056 27.1069 37.6271 25.7345L24.7069 2.46734ZM20.5664 28.4766C19.6927 28.4766 18.9844 27.7682 18.9844 26.8945C18.9844 26.0208 19.6927 25.3125 20.5664 25.3125C21.4401 25.3125 22.1484 26.0208 22.1484 26.8945C22.1484 27.7682 21.4401 28.4766 20.5664 28.4766ZM22.1484 20.5664C22.1484 21.4408 21.4409 22.1484 20.5664 22.1484C19.692 22.1484 18.9844 21.4408 18.9844 20.5664V14.2383C18.9844 13.3638 19.692 12.6562 20.5664 12.6562C21.4409 12.6562 22.1484 13.3638 22.1484 14.2383V20.5664Z"
        fill="#EB5939"
    />
    </g>
    <defs>
    <clipPath id="clip0_58_16866">
        <rect width="54" height="54" fill="white" />
    </clipPath>
    </defs>
</svg>