<svg width="32" height="32" viewBox="0 0 32 32" fill="none" xmlns="http://www.w3.org/2000/svg">
<g clip-path="url(#clip0_1196_714)">
<path d="M31.7469 12.3593C31.5741 12.0474 31.3208 11.7876 31.0133 11.6071C30.7058 11.4265 30.3555 11.3319 29.9989 11.333H11.0481C10.4092 11.333 9.78748 11.5402 9.27633 11.9236C8.76518 12.3069 8.39215 12.8457 8.21325 13.4591L4.46225 26.3197C4.26478 26.9967 3.85305 27.5914 3.28886 28.0145C2.72468 28.4376 2.03847 28.6664 1.33325 28.6664H25.1651C25.8705 28.6664 26.5568 28.4376 27.1211 28.0144C27.6854 27.5911 28.0972 26.9963 28.2947 26.3192L31.8957 13.9736C31.9794 13.7082 32.0094 13.4287 31.9839 13.1515C31.9583 12.8743 31.8778 12.605 31.7469 12.3593Z" fill="#EB5939"/>
<path d="M3.18 25.9463L6.93333 13.0863C7.19481 12.1973 7.73651 11.4165 8.47771 10.8603C9.21892 10.3041 10.12 10.0022 11.0467 9.99967H28V9.33301C28 8.62576 27.719 7.94749 27.219 7.44739C26.7189 6.94729 26.0406 6.66634 25.3333 6.66634H15.1705C14.9718 6.66634 14.7756 6.62206 14.5962 6.53672C14.4168 6.45138 14.2587 6.32713 14.1333 6.17301L12.8229 4.56161C12.5107 4.17778 12.1169 3.86835 11.6701 3.65582C11.2233 3.44329 10.7348 3.33302 10.24 3.33301H2.66667C1.95942 3.33301 1.28115 3.61396 0.781049 4.11406C0.280952 4.61415 0 5.29243 0 5.99967L0 25.9997C0 26.3533 0.140476 26.6924 0.390524 26.9425C0.640573 27.1925 0.979711 27.333 1.33333 27.333C1.7495 27.3319 2.15416 27.1962 2.48695 26.9463C2.81974 26.6965 3.06284 26.3457 3.18 25.9463Z" fill="#EB5939"/>
</g>
<defs>
<clipPath id="clip0_1196_714">
<rect width="32" height="32" fill="white"/>
</clipPath>
</defs>
</svg>
