<svg width="38" height="38" viewBox="0 0 38 38" fill="none" xmlns="http://www.w3.org/2000/svg">
<path d="M19.0002 0C12.8727 0 7.88736 4.98512 7.88736 11.1129V17.4597C7.88736 17.5318 7.79836 17.6533 7.72845 17.6766C7.1275 17.877 6.63945 18.0506 6.19268 18.2229C5.6599 18.4283 5.25806 19.0187 5.25806 19.5963V34.1796C5.25806 34.7533 5.6573 35.3442 6.18671 35.554C10.2828 37.1772 14.5939 38 19.0002 38C23.4064 38 27.7175 37.177 31.8138 35.5538C32.343 35.3441 32.7421 34.7533 32.7421 34.1796V19.5963C32.7421 19.0187 32.3403 18.4283 31.8072 18.2227C31.3603 18.0504 30.8723 17.8768 30.2718 17.6764C30.2021 17.6531 30.1131 17.5316 30.1131 17.4594V11.1127C30.1127 4.98512 25.1278 0 19.0002 0ZM15.9734 24.0379C15.9734 22.365 17.3285 21.0113 19 21.0113C20.6714 21.0113 22.0266 22.3649 22.0266 24.0379C22.0266 25.1464 21.4015 26.0744 20.5133 26.6005V31.6045C20.5133 32.441 19.8364 33.1178 19 33.1178C18.1634 33.1178 17.4867 32.441 17.4867 31.6045V26.6005C16.5985 26.0744 15.9734 25.1464 15.9734 24.0379ZM26.2919 11.1127V16.5888C23.9007 16.0743 21.4475 15.8137 19.0012 15.8135C16.556 15.8135 14.1033 16.0741 11.7084 16.5882V11.1127C11.7084 7.09196 14.9794 3.82107 19 3.82107C23.0206 3.82101 26.2919 7.09196 26.2919 11.1127Z" fill="#EB5939"/>
</svg>
