<svg width="128" height="128" viewBox="0 0 128 128" fill="none" xmlns="http://www.w3.org/2000/svg">
<path d="M104 64V32H58.88C58.281 31.9987 57.6898 31.8632 57.15 31.6037C56.6101 31.3441 56.1352 30.967 55.76 30.5L45.16 17.24C43.8488 15.6041 42.1867 14.2839 40.2965 13.3769C38.4063 12.4699 36.3365 11.9993 34.24 12H10C7.34784 12 4.8043 13.0536 2.92893 14.9289C1.05357 16.8043 0 19.3478 0 22L0 82C0 84.6522 1.05357 87.1957 2.92893 89.0711C4.8043 90.9464 7.34784 92 10 92H76C76 84.5739 78.95 77.452 84.201 72.201C89.452 66.95 96.5739 64 104 64Z" fill="#EB5939"/>
<path d="M104 28C103.999 25.3481 102.945 22.8051 101.07 20.93C99.1949 19.0548 96.6519 18.001 94 18H50.88L58.88 28H104Z" fill="#EB5939"/>
<path d="M104 68C99.2533 68 94.6131 69.4076 90.6663 72.0447C86.7195 74.6819 83.6434 78.4302 81.8269 82.8156C80.0104 87.201 79.5351 92.0266 80.4612 96.6822C81.3872 101.338 83.673 105.614 87.0294 108.971C90.3859 112.327 94.6623 114.613 99.3178 115.539C103.973 116.465 108.799 115.99 113.184 114.173C117.57 112.357 121.318 109.28 123.955 105.334C126.592 101.387 128 96.7468 128 92C127.993 85.637 125.462 79.5367 120.963 75.0374C116.463 70.5381 110.363 68.0072 104 68ZM113.414 98.586C113.605 98.7705 113.757 98.9912 113.862 99.2352C113.967 99.4792 114.022 99.7416 114.025 100.007C114.027 100.273 113.976 100.536 113.876 100.782C113.775 101.028 113.627 101.251 113.439 101.439C113.251 101.627 113.028 101.775 112.782 101.876C112.536 101.976 112.273 102.027 112.007 102.024C111.742 102.022 111.479 101.967 111.235 101.862C110.991 101.757 110.771 101.605 110.586 101.414L104 94.8282L97.414 101.414C97.0368 101.778 96.5316 101.98 96.0072 101.975C95.4828 101.971 94.9812 101.76 94.6104 101.39C94.2396 101.019 94.0292 100.517 94.0247 99.9928C94.0201 99.4684 94.2217 98.9632 94.586 98.586L101.172 92L94.586 85.414C94.2217 85.0368 94.0201 84.5316 94.0247 84.0072C94.0292 83.4828 94.2396 82.9812 94.6104 82.6104C94.9812 82.2395 95.4828 82.0292 96.0072 82.0247C96.5316 82.0201 97.0368 82.2217 97.414 82.586L104 89.1718L110.586 82.586C110.963 82.2217 111.468 82.0201 111.993 82.0247C112.517 82.0292 113.019 82.2395 113.39 82.6104C113.76 82.9812 113.971 83.4828 113.975 84.0072C113.98 84.5316 113.778 85.0368 113.414 85.414L106.828 92L113.414 98.586Z" fill="#EB5939"/>
</svg>
