<svg width="64" height="64" viewBox="0 0 64 64" fill="none" xmlns="http://www.w3.org/2000/svg">
<path fill-rule="evenodd" clip-rule="evenodd" d="M18.6667 48C17.1939 48 16 49.1939 16 50.6667V58.6667C16 60.1395 17.1939 61.3333 18.6667 61.3333H45.3333C46.8061 61.3333 48 60.1395 48 58.6667V50.6667C48 49.1939 46.8061 48 45.3333 48H18.6667Z" fill="#EB5939"/>
<path fill-rule="evenodd" clip-rule="evenodd" d="M34.6667 4.59473V27.2213C37.0214 28.2501 38.6667 30.5995 38.6667 33.3333C38.6667 37.0152 35.6819 40 32 40C28.3182 40 25.3334 37.0152 25.3334 33.3333C25.3334 30.5995 26.9787 28.2501 29.3334 27.2213V4.59475L13.7134 30.628C13.3337 31.2611 13.2332 32.0229 13.436 32.7325L18.7693 51.3992C19.0964 52.544 20.1428 53.3333 21.3334 53.3333H42.6667C43.8574 53.3333 44.9038 52.544 45.2307 51.3992L50.564 32.7325C50.767 32.0229 50.6664 31.2611 50.2867 30.628L34.6667 4.59473Z" fill="#EB5939"/>
</svg>
