<svg width="32" height="32" viewBox="0 0 32 32" fill="none" xmlns="http://www.w3.org/2000/svg">
    <g clip-path="url(#clip0_321_4598)">
    <path d="M4.73935 15.9241C4.3602 15.545 3.85467 15.3428 3.32387 15.3428C2.79306 15.3428 2.28753 15.545 1.90839 15.9241C1.52924 16.3033 1.32703 16.8088 1.32703 17.3396C1.32703 17.8704 1.52924 18.3759 1.90839 18.7551C2.28753 19.1342 2.79306 19.3365 3.32387 19.3365C3.85467 19.3365 4.3602 19.1342 4.73935 18.7551C5.1185 18.3759 5.32071 17.8704 5.32071 17.3396C5.32071 16.8088 5.1185 16.3033 4.73935 15.9241Z" fill="#EB5939"/>
    <path d="M8.25278 24.6699C7.62087 24.0127 7.11534 23.305 6.68564 22.5467C6.33177 21.9148 5.67458 21.5356 4.94156 21.5356C4.61297 21.5356 4.2591 21.6115 3.95578 21.7884C2.99528 22.3192 2.64141 23.5578 3.19749 24.5183C3.77885 25.5799 4.51187 26.5404 5.34599 27.4251C5.72514 27.8295 6.25594 28.057 6.81202 28.057C7.31755 28.057 7.82308 27.8548 8.17695 27.5009C8.5561 27.1217 8.78359 26.6415 8.80886 26.1107C8.83414 25.5799 8.63193 25.0743 8.25278 24.6699Z" fill="#EB5939"/>
    <path d="M22.4328 28.4362C22.0789 27.6779 21.3206 27.1724 20.5118 27.1724C20.259 27.1724 20.0315 27.2229 19.8041 27.2987C18.5908 27.7537 17.3017 28.0065 16.0126 28.0065C15.1026 28.0065 14.218 27.9054 13.3333 27.6779C13.2575 27.6526 13.1816 27.6526 13.1311 27.6273C12.9541 27.5768 12.7772 27.5515 12.6003 27.5515C11.7156 27.5515 10.9067 28.1581 10.6793 29.0175C10.5276 29.5231 10.6034 30.0792 10.8562 30.5341C11.109 30.9891 11.5387 31.343 12.0695 31.4694C12.1706 31.4946 12.2717 31.5199 12.3728 31.5452C13.5608 31.8485 14.7993 32.0002 16.0379 32.0002C17.8325 32.0002 19.6018 31.6716 21.2701 31.0397C21.7756 30.8375 22.1548 30.4836 22.3823 29.978C22.6097 29.4978 22.6097 28.9417 22.4328 28.4362Z" fill="#EB5939"/>
    <path d="M20.7646 3.48815C21.0679 3.21011 21.2701 2.85624 21.3712 2.45182C21.4976 1.92101 21.3965 1.39021 21.1185 0.935229C20.7393 0.35387 20.1074 0 19.4249 0C19.0458 0 18.6919 0.101106 18.3633 0.303318L14.6982 2.62875C14.2433 2.90679 13.9399 3.36177 13.8136 3.8673C13.6872 4.3981 13.7883 4.92891 14.0663 5.38389L16.3918 9.04897C16.7709 9.63033 17.4028 9.9842 18.0853 9.9842C18.4644 9.9842 18.8183 9.8831 19.1469 9.68088C19.9052 9.20063 20.2338 8.29068 20.0063 7.45656C24 9.07425 26.654 12.9921 26.654 17.3397C26.654 19.7409 25.8704 22.0158 24.4044 23.9115C23.7219 24.7709 23.8736 26.0348 24.7583 26.7172C25.1121 26.9953 25.5418 27.1469 25.9968 27.1469C26.6287 27.1469 27.1848 26.8689 27.564 26.3886C29.5861 23.7852 30.673 20.6761 30.673 17.3649C30.6477 11.0205 26.7046 5.53555 20.7646 3.48815Z" fill="#EB5939"/>
    </g>
    <defs>
    <clipPath id="clip0_321_4598">
    <rect width="32" height="32" fill="white"/>
    </clipPath>
    </defs>
</svg>
