<svg width="32" height="32" viewBox="0 0 32 32" fill="none" xmlns="http://www.w3.org/2000/svg">
<rect width="32" height="32" rx="8" fill="#27AE60" fill-opacity="0.5"/>
<path d="M23.3848 10.9332C23.2158 10.7781 22.979 10.7207 22.7577 10.7813L17.5723 12.1955C17.0053 12.3497 16.9006 13.1089 17.4047 13.4108L18.1537 13.8599C18.1877 13.8803 18.2165 13.9081 18.238 13.9412C18.2596 13.9744 18.2733 14.012 18.2782 14.0513C18.283 14.0905 18.2788 14.1304 18.266 14.1677C18.2531 14.2051 18.2319 14.2391 18.2039 14.2671L16.5687 15.9023C16.5062 15.9648 16.4214 15.9999 16.333 15.9999C16.2446 15.9999 16.1598 15.9648 16.0973 15.9023L14.9188 14.7237C14.3981 14.2031 13.5539 14.2031 13.0332 14.7237L8.79055 18.9664C8.26985 19.4871 8.26985 20.3313 8.79055 20.852C9.31125 21.3727 10.1555 21.3727 10.6762 20.852L13.7403 17.7879C13.8028 17.7254 13.8876 17.6902 13.976 17.6902C14.0644 17.6902 14.1492 17.7254 14.2117 17.7879L15.3902 18.9664C15.9109 19.487 16.7551 19.487 17.2758 18.9664L20.0895 16.1527C20.1175 16.1247 20.1515 16.1035 20.1889 16.0906C20.2263 16.0777 20.2661 16.0736 20.3054 16.0784C20.3446 16.0832 20.3823 16.0969 20.4155 16.1185C20.4486 16.14 20.4764 16.1689 20.4968 16.2028L20.9476 16.9537C21.2503 17.4563 22.0077 17.3512 22.162 16.7852L23.5763 11.5998C23.6421 11.3592 23.5682 11.1021 23.3848 10.9332Z" fill="#27AE60"/>
</svg>
